<svg width="1440" height="372" viewBox="0 0 1440 372" fill="none" xmlns="http://www.w3.org/2000/svg">
<g clip-path="url(#clip0_202_8166)">
<rect width="1440" height="371.2" fill="white"/>
<path d="M387.398 167.229L397.186 153.455L430.465 191.904L387.398 167.229Z" fill="#EFEFEF"/>
<path d="M386.38 171.729L387.397 167.228L430.464 191.903L372.947 183.583L375.909 177.492L386.38 171.729Z" fill="#BFBDBD"/>
<path d="M380.592 168.982L430.464 191.903L357 172.706L380.592 168.982Z" fill="#EFEFEF"/>
<path d="M-26.3408 27.1653C32.858 8.17836 77.237 181.536 210.89 106.041C325.214 41.465 322.984 141.304 380.096 162.713" stroke="#DDE1E5" stroke-linejoin="round" stroke-dasharray="16 16"/>
<path d="M227.038 687.872C227.038 687.872 -329.012 17.9814 200.984 220.481C296.042 256.801 305.984 306.981 411.984 312.981C413.618 312.985 509.984 308.262 521.484 306.981C965.984 257.481 1511.72 13.4116 1624.98 62.4814C1763.48 122.481 1667.04 274.872 1667.04 478.872L1667.04 687.872L227.038 687.872Z" fill="#FDF5FF" fill-opacity="0.65"/>
<path fill-rule="evenodd" clip-rule="evenodd" d="M270.721 545.754C222.562 539.843 217.02 469.723 174.613 446.112C115.396 413.143 -83.5558 425.045 -113.377 364.147C-148.459 292.506 -68.3745 153.518 17.5 142.5C111.125 142.5 165.386 248.284 242.969 268.555C304.823 284.717 378.609 224.521 425.23 268.308C481.179 320.855 563.959 421.104 526.623 488.147C490.813 552.45 343.749 554.716 270.721 545.754Z" fill="#DFECFF" fill-opacity="0.3"/>
<path opacity="0.6" d="M258.885 207.12C253.928 207.12 252.229 211.67 252 213.944H355.272C359.403 213.944 360.091 214.627 364.222 211.215C370.253 206.234 370.419 198.931 365.599 196.202C360.78 193.472 355.272 198.931 349.764 194.837C344.256 190.743 343.568 173 333.241 173C322.913 173 316.717 198.931 308.455 198.931C300.194 198.931 297.44 190.06 289.178 190.06C280.916 190.06 278.162 211.215 271.966 211.215C265.77 211.215 265.081 207.12 258.885 207.12Z" fill="#F5F3F6"/>
<path opacity="0.5" d="M85.8848 79.1202C80.9277 79.1202 79.2295 83.6696 79 85.9443H182.272C186.403 85.9443 187.091 86.6267 191.222 83.2147C197.253 78.2336 197.419 70.9314 192.599 68.2018C187.78 65.4721 182.272 70.9314 176.764 66.837C171.256 62.7425 170.568 45 160.241 45C149.913 45 143.717 70.9314 135.455 70.9314C127.194 70.9314 124.44 62.0601 116.178 62.0601C107.916 62.0601 105.162 83.2147 98.9659 83.2147C92.7696 83.2147 92.0811 79.1202 85.8848 79.1202Z" fill="#F5F3F6"/>
<path opacity="0.4" d="M1156.53 114.422C1148.23 114.422 1145.38 122.078 1145 125.906H1318C1324.92 125.906 1326.08 127.055 1333 121.312C1343.1 112.93 1343.38 100.641 1335.3 96.0469C1327.23 91.4531 1318 100.641 1308.78 93.75C1299.55 86.8594 1298.4 57 1281.1 57C1263.8 57 1253.42 100.641 1239.57 100.641C1225.73 100.641 1221.12 85.7109 1207.28 85.7109C1193.44 85.7109 1188.83 121.312 1178.45 121.312C1168.07 121.312 1166.91 114.422 1156.53 114.422Z" fill="#EDEDED"/>
<path fill-rule="evenodd" clip-rule="evenodd" d="M1232.1 267.34C1538.25 190.116 1847.25 343.332 1874.92 452.999C1901.4 557.982 1408.11 594.541 1301.09 510.368C1194.08 426.196 945.384 454.829 942.983 406.581C940.581 358.334 949.976 338.501 1232.1 267.34Z" fill="#FFD4D4" fill-opacity="0.1"/>
<path fill-rule="evenodd" clip-rule="evenodd" d="M1249.43 231.437C1273.01 198.359 1330.94 207.015 1384.3 216.899C1446.76 228.47 1534.12 235.718 1547.24 286.607C1559.89 335.689 1493.99 355.428 1446.59 375.276C1382.24 402.221 1197.34 457.347 1125.5 412C1050.44 364.623 1211.68 284.407 1249.43 231.437Z" fill="#C4C4C4" fill-opacity="0.08"/>
</g>
<defs>
<clipPath id="clip0_202_8166">
<rect width="1440" height="371.2" fill="white"/>
</clipPath>
</defs>
</svg>
